# xmcd CD database file
#
# Track frame offsets:
#	150
#	16989
#	34995
#	63102
#	85849
#	110494
#	154341
#	180717
#	204724
#
# Disc length: 2963 seconds
#
# Revision: 0
# Processed by: cddbd v1.5.2PL0 Copyright (c) Steve Scherf et al.
# Submitted via: CDex 1.51
#
DISCID=730b9109
DTITLE=Rebecca Kontus - Inglite pisarad
DYEAR=1900
DGENRE=Jazz
TTITLE0=Inglite pisarad
TTITLE1=Meie, inimlapsed
TTITLE2=You raise me up
TTITLE3=Kellakaja
TTITLE4=What a friend I've found
TTITLE5=Võta aega olla püha
TTITLE6=Come sunday
TTITLE7=Päeva lõpul kõrbeliival
TTITLE8=Ma tõusen tuhast üles
EXTD=
EXTT0=
EXTT1=
EXTT2=
EXTT3=
EXTT4=
EXTT5=
EXTT6=
EXTT7=
EXTT8=
PLAYORDER=
